<svg height='100px' width='100px'  fill="#0076a3" xmlns="http://www.w3.org/2000/svg" xmlns:xlink="http://www.w3.org/1999/xlink" version="1.1" x="0px" y="0px" viewBox="0 0 64 64" enable-background="new 0 0 64 64" xml:space="preserve"><path d="M39,25h25v2H39c-0.533,0-1.035-0.208-1.413-0.585C37.208,26.038,37,25.535,37,25V0h2V25z M26.414,26.414  C26.792,26.036,27,25.534,27,25V0h-2v25H0v2h25C25.534,27,26.036,26.792,26.414,26.414z M37.586,37.586  C37.208,37.964,37,38.466,37,39v25h2V39h25v-2H39C38.466,37,37.964,37.208,37.586,37.586z M25,37H0v2h25v25h2V39  c0-0.533-0.208-1.035-0.585-1.413C26.038,37.208,25.535,37,25,37z M0,19c0-2.206,1.794-4,4-4c1.858,0,3.411,1.28,3.858,3H18V7.858  c-1.72-0.447-3-2-3-3.858c0-2.206,1.794-4,4-4s4,1.794,4,4c0,1.858-1.28,3.411-3,3.858V18c0,0.534-0.208,1.036-0.586,1.414  S18.534,20,18,20H7.858c-0.447,1.72-2,3-3.858,3C1.794,23,0,21.206,0,19z M19,6c1.103,0,2-0.897,2-2s-0.897-2-2-2s-2,0.897-2,2  S17.897,6,19,6z M2,19c0,1.103,0.897,2,2,2s2-0.897,2-2s-0.897-2-2-2S2,17.897,2,19z M41,4c0-2.206,1.794-4,4-4s4,1.794,4,4  c0,1.858-1.279,3.411-3,3.858V18h10.142c0.447-1.72,2-3,3.858-3c2.206,0,4,1.794,4,4s-1.794,4-4,4c-1.858,0-3.411-1.28-3.858-3H46  c-0.533,0-1.035-0.208-1.413-0.585C44.208,19.038,44,18.535,44,18V7.858C42.279,7.411,41,5.858,41,4z M58,19c0,1.103,0.897,2,2,2  s2-0.897,2-2s-0.897-2-2-2S58,17.897,58,19z M43,4c0,1.103,0.897,2,2,2s2-0.897,2-2s-0.897-2-2-2S43,2.897,43,4z M64,45  c0,2.206-1.794,4-4,4c-1.858,0-3.411-1.279-3.858-3H46v10.142c1.721,0.447,3,2,3,3.858c0,2.206-1.794,4-4,4s-4-1.794-4-4  c0-1.858,1.279-3.411,3-3.858V46c0-0.534,0.208-1.036,0.586-1.414S45.466,44,46,44h10.142c0.447-1.721,2-3,3.858-3  C62.206,41,64,42.794,64,45z M45,58c-1.103,0-2,0.897-2,2s0.897,2,2,2s2-0.897,2-2S46.103,58,45,58z M62,45c0-1.103-0.897-2-2-2  s-2,0.897-2,2s0.897,2,2,2S62,46.103,62,45z M23,60c0,2.206-1.794,4-4,4s-4-1.794-4-4c0-1.858,1.28-3.411,3-3.858V46H7.858  c-0.447,1.721-2,3-3.858,3c-2.206,0-4-1.794-4-4s1.794-4,4-4c1.858,0,3.411,1.279,3.858,3H18c0.535,0,1.038,0.208,1.415,0.587  C19.792,44.965,20,45.467,20,46v10.142C21.72,56.589,23,58.142,23,60z M6,45c0-1.103-0.897-2-2-2s-2,0.897-2,2s0.897,2,2,2  S6,46.103,6,45z M21,60c0-1.103-0.897-2-2-2s-2,0.897-2,2s0.897,2,2,2S21,61.103,21,60z M31,29h2v-2h-2V29z M31,25h2v-2h-2V25z   M31,21h2v-2h-2V21z M31,45h2v-2h-2V45z M31,41h2v-2h-2V41z M31,37h2v-2h-2V37z M27,33h2v-2h-2V33z M25,33v-2h-2v2H25z M21,33v-2h-2  v2H21z M43,31v2h2v-2H43z M39,31v2h2v-2H39z M37,31h-2v2h2V31z M47,33h17v-2H47V33z M17,31H0v2h17V31z M31,64h2V47h-2V64z M31,17h2  V0h-2V17z"></path></svg>